STARTFONT 2.1
COMMENT
COMMENT Converted from OpenType font "KarenFat.ttf" by "otf2bdf 3.0".
COMMENT
FONT -FreeType-KarenFat-Medium-R-Normal--18-180-72-72-P-84-ISO10646-1
SIZE 18 72 72
FONTBOUNDINGBOX 14 19 0 -5
STARTPROPERTIES 19
FOUNDRY "FreeType"
FAMILY_NAME "KarenFat"
WEIGHT_NAME "Medium"
SLANT "R"
SETWIDTH_NAME "Normal"
ADD_STYLE_NAME ""
PIXEL_SIZE 18
POINT_SIZE 180
RESOLUTION_X 72
RESOLUTION_Y 72
SPACING "P"
AVERAGE_WIDTH 84
CHARSET_REGISTRY "ISO10646"
CHARSET_ENCODING "1"
FONT_ASCENT 13
FONT_DESCENT 4
COPYRIGHT "PaulSpades"
_OTF_FONTFILE "KarenFat.ttf"
_OTF_PSNAME "KarenFat"
ENDPROPERTIES
CHARS 95
STARTCHAR 0020
ENCODING 32
SWIDTH 277 0
DWIDTH 5 0
BBX 0 0 0 0
BITMAP
ENDCHAR
STARTCHAR 0021
ENCODING 33
SWIDTH 277 0
DWIDTH 5 0
BBX 4 13 1 -1
BITMAP
F0
F0
F0
F0
F0
F0
F0
F0
00
00
F0
F0
F0
ENDCHAR
STARTCHAR 0022
ENCODING 34
SWIDTH 500 0
DWIDTH 9 0
BBX 7 4 1 7
BITMAP
FE
FE
FE
DC
ENDCHAR
STARTCHAR 0023
ENCODING 35
SWIDTH 611 0
DWIDTH 11 0
BBX 10 10 0 0
BITMAP
7B80
7B80
FF80
FF80
7B80
FFC0
FFC0
FFC0
7B80
7B80
ENDCHAR
STARTCHAR 0024
ENCODING 36
SWIDTH 500 0
DWIDTH 9 0
BBX 8 11 0 0
BITMAP
1C
7F
FF
DC
FE
7F
7F
1F
FF
FE
1C
ENDCHAR
STARTCHAR 0025
ENCODING 37
SWIDTH 666 0
DWIDTH 12 0
BBX 11 14 0 -2
BITMAP
3C00
7E00
6EE0
7FE0
3FC0
0F80
1F00
3F00
3E00
7F80
FFC0
EEC0
0FC0
0380
ENDCHAR
STARTCHAR 0026
ENCODING 38
SWIDTH 666 0
DWIDTH 12 0
BBX 11 10 0 0
BITMAP
3E00
7E00
6E00
3FC0
7FC0
FFC0
EE00
EEE0
FFE0
7BC0
ENDCHAR
STARTCHAR 0027
ENCODING 39
SWIDTH 277 0
DWIDTH 5 0
BBX 4 4 1 7
BITMAP
F0
F0
F0
70
ENDCHAR
STARTCHAR 0028
ENCODING 40
SWIDTH 333 0
DWIDTH 6 0
BBX 5 13 1 -2
BITMAP
38
78
70
F0
C0
C0
C0
C0
C0
F0
70
78
38
ENDCHAR
STARTCHAR 0029
ENCODING 41
SWIDTH 333 0
DWIDTH 6 0
BBX 5 13 1 -2
BITMAP
C0
F0
70
78
38
38
38
38
38
78
70
F0
C0
ENDCHAR
STARTCHAR 002A
ENCODING 42
SWIDTH 555 0
DWIDTH 10 0
BBX 8 8 1 3
BITMAP
F7
FF
FF
3C
FF
FF
FF
F7
ENDCHAR
STARTCHAR 002B
ENCODING 43
SWIDTH 555 0
DWIDTH 10 0
BBX 8 7 1 2
BITMAP
3C
3C
FF
FF
FF
3C
3C
ENDCHAR
STARTCHAR 002C
ENCODING 44
SWIDTH 333 0
DWIDTH 6 0
BBX 5 5 1 -3
BITMAP
78
78
78
F8
F0
ENDCHAR
STARTCHAR 002D
ENCODING 45
SWIDTH 333 0
DWIDTH 6 0
BBX 5 3 1 3
BITMAP
F8
F8
F8
ENDCHAR
STARTCHAR 002E
ENCODING 46
SWIDTH 277 0
DWIDTH 5 0
BBX 4 3 1 0
BITMAP
F0
F0
F0
ENDCHAR
STARTCHAR 002F
ENCODING 47
SWIDTH 388 0
DWIDTH 7 0
BBX 6 12 1 -1
BITMAP
1C
1C
3C
38
38
78
78
70
70
F0
C0
C0
ENDCHAR
STARTCHAR 0030
ENCODING 48
SWIDTH 500 0
DWIDTH 9 0
BBX 8 11 0 0
BITMAP
7E
FF
EF
EF
EF
EF
EF
EF
EF
FF
7E
ENDCHAR
STARTCHAR 0031
ENCODING 49
SWIDTH 388 0
DWIDTH 7 0
BBX 6 11 1 0
BITMAP
38
F8
F8
78
78
78
78
78
78
FC
FC
ENDCHAR
STARTCHAR 0032
ENCODING 50
SWIDTH 500 0
DWIDTH 9 0
BBX 8 11 0 0
BITMAP
7E
FF
EF
0F
7F
FE
FE
E0
EF
FF
FF
ENDCHAR
STARTCHAR 0033
ENCODING 51
SWIDTH 555 0
DWIDTH 10 0
BBX 9 11 0 0
BITMAP
FF00
FF00
EF00
1E00
3C00
7F00
7F80
0F80
EF80
FF80
FF00
ENDCHAR
STARTCHAR 0034
ENCODING 52
SWIDTH 555 0
DWIDTH 10 0
BBX 9 11 0 0
BITMAP
0F00
1F00
3F00
7F00
EF00
EF00
FF80
FF80
FF80
0F00
0F00
ENDCHAR
STARTCHAR 0035
ENCODING 53
SWIDTH 500 0
DWIDTH 9 0
BBX 8 11 0 0
BITMAP
FF
FF
E0
E0
FE
FF
FF
0F
EF
FF
7E
ENDCHAR
STARTCHAR 0036
ENCODING 54
SWIDTH 500 0
DWIDTH 9 0
BBX 8 11 0 0
BITMAP
7E
FF
EF
E0
FE
FF
FF
EF
EF
FF
7E
ENDCHAR
STARTCHAR 0037
ENCODING 55
SWIDTH 500 0
DWIDTH 9 0
BBX 8 11 0 0
BITMAP
FF
FF
EF
0F
1F
1E
3E
3E
3C
3C
3C
ENDCHAR
STARTCHAR 0038
ENCODING 56
SWIDTH 500 0
DWIDTH 9 0
BBX 8 11 0 0
BITMAP
7E
FF
EF
EF
7E
FF
FF
EF
EF
FF
7E
ENDCHAR
STARTCHAR 0039
ENCODING 57
SWIDTH 500 0
DWIDTH 9 0
BBX 8 11 0 0
BITMAP
7E
FF
EF
EF
FF
7F
7F
0F
EF
FF
7E
ENDCHAR
STARTCHAR 003A
ENCODING 58
SWIDTH 277 0
DWIDTH 5 0
BBX 4 8 1 0
BITMAP
F0
F0
00
00
00
00
F0
F0
ENDCHAR
STARTCHAR 003B
ENCODING 59
SWIDTH 333 0
DWIDTH 6 0
BBX 5 10 1 -2
BITMAP
78
78
00
00
00
00
78
78
F8
F0
ENDCHAR
STARTCHAR 003C
ENCODING 60
SWIDTH 388 0
DWIDTH 7 0
BBX 6 7 1 1
BITMAP
3C
7C
F0
F0
F0
7C
3C
ENDCHAR
STARTCHAR 003D
ENCODING 61
SWIDTH 388 0
DWIDTH 7 0
BBX 6 6 1 1
BITMAP
FC
FC
FC
00
FC
FC
ENDCHAR
STARTCHAR 003E
ENCODING 62
SWIDTH 388 0
DWIDTH 7 0
BBX 6 7 1 1
BITMAP
F0
F8
3C
3C
3C
F8
F0
ENDCHAR
STARTCHAR 003F
ENCODING 63
SWIDTH 555 0
DWIDTH 10 0
BBX 9 12 0 -1
BITMAP
7F00
FF80
E380
0F00
1E00
3C00
3C00
3C00
0000
0000
3C00
3C00
ENDCHAR
STARTCHAR 0040
ENCODING 64
SWIDTH 666 0
DWIDTH 12 0
BBX 11 12 0 -3
BITMAP
3F80
7FC0
C0E0
9F60
BF60
BB60
BB60
BB60
9FE0
C000
7FC0
3FC0
ENDCHAR
STARTCHAR 0041
ENCODING 65
SWIDTH 555 0
DWIDTH 10 0
BBX 9 10 0 0
BITMAP
7F00
FF80
E380
E380
E380
FF80
FF80
FF80
E380
E380
ENDCHAR
STARTCHAR 0042
ENCODING 66
SWIDTH 555 0
DWIDTH 10 0
BBX 9 10 0 0
BITMAP
FF00
FF80
E380
E380
FF00
FF80
FF80
E380
FF80
FF00
ENDCHAR
STARTCHAR 0043
ENCODING 67
SWIDTH 555 0
DWIDTH 10 0
BBX 9 10 0 0
BITMAP
7F00
FF80
E380
E380
E000
E000
E000
E380
FF80
7F00
ENDCHAR
STARTCHAR 0044
ENCODING 68
SWIDTH 555 0
DWIDTH 10 0
BBX 9 10 0 0
BITMAP
FF00
FF80
E380
E380
E380
E380
E380
E380
FF80
FF00
ENDCHAR
STARTCHAR 0045
ENCODING 69
SWIDTH 555 0
DWIDTH 10 0
BBX 9 10 0 0
BITMAP
FF80
FF80
E380
E000
FC00
FC00
FC00
E380
FF80
FF80
ENDCHAR
STARTCHAR 0046
ENCODING 70
SWIDTH 555 0
DWIDTH 10 0
BBX 9 10 0 0
BITMAP
FF80
FF80
E380
E000
FE00
FE00
FE00
E000
E000
E000
ENDCHAR
STARTCHAR 0047
ENCODING 71
SWIDTH 555 0
DWIDTH 10 0
BBX 9 10 0 0
BITMAP
7F00
FF80
E380
E000
EF80
EF80
EF80
E380
FF80
7F00
ENDCHAR
STARTCHAR 0048
ENCODING 72
SWIDTH 555 0
DWIDTH 10 0
BBX 9 10 0 0
BITMAP
E380
E380
E380
E380
FF80
FF80
FF80
E380
E380
E380
ENDCHAR
STARTCHAR 0049
ENCODING 73
SWIDTH 333 0
DWIDTH 6 0
BBX 6 10 0 0
BITMAP
FC
FC
78
78
78
78
78
78
FC
FC
ENDCHAR
STARTCHAR 004A
ENCODING 74
SWIDTH 555 0
DWIDTH 10 0
BBX 9 10 0 0
BITMAP
3F80
3F80
0380
0380
0380
E380
E380
E380
FF80
7F00
ENDCHAR
STARTCHAR 004B
ENCODING 75
SWIDTH 555 0
DWIDTH 10 0
BBX 9 10 0 0
BITMAP
E380
E380
E380
EF00
FE00
FF00
FF00
EF80
E380
E380
ENDCHAR
STARTCHAR 004C
ENCODING 76
SWIDTH 555 0
DWIDTH 10 0
BBX 9 10 0 0
BITMAP
E000
E000
E000
E000
E000
E000
E000
E380
FF80
FF80
ENDCHAR
STARTCHAR 004D
ENCODING 77
SWIDTH 666 0
DWIDTH 12 0
BBX 11 10 0 0
BITMAP
E0E0
E0E0
F9E0
FFE0
FFE0
FFE0
EEE0
E0E0
E0E0
E0E0
ENDCHAR
STARTCHAR 004E
ENCODING 78
SWIDTH 555 0
DWIDTH 10 0
BBX 9 10 0 0
BITMAP
E380
E380
FB80
FB80
FF80
FF80
FF80
EF80
EF80
E380
ENDCHAR
STARTCHAR 004F
ENCODING 79
SWIDTH 555 0
DWIDTH 10 0
BBX 9 10 0 0
BITMAP
7F00
FF80
E380
E380
E380
E380
E380
E380
FF80
7F00
ENDCHAR
STARTCHAR 0050
ENCODING 80
SWIDTH 555 0
DWIDTH 10 0
BBX 9 10 0 0
BITMAP
FF00
FF80
E380
E380
E380
FF80
FF80
FF00
E000
E000
ENDCHAR
STARTCHAR 0051
ENCODING 81
SWIDTH 555 0
DWIDTH 10 0
BBX 9 13 0 -3
BITMAP
7F00
FF80
E380
E380
E380
E380
E380
E380
FF80
7F00
1C00
0F80
0380
ENDCHAR
STARTCHAR 0052
ENCODING 82
SWIDTH 555 0
DWIDTH 10 0
BBX 9 10 0 0
BITMAP
FF00
FF80
E380
EF00
FE00
FF00
FF00
E380
E380
E380
ENDCHAR
STARTCHAR 0053
ENCODING 83
SWIDTH 555 0
DWIDTH 10 0
BBX 9 10 0 0
BITMAP
7F80
FF80
E380
FC00
7F00
7F80
1F80
E380
FF80
FF00
ENDCHAR
STARTCHAR 0054
ENCODING 84
SWIDTH 611 0
DWIDTH 11 0
BBX 10 10 0 0
BITMAP
FFC0
FFC0
DEC0
1E00
1E00
1E00
1E00
1E00
1E00
1E00
ENDCHAR
STARTCHAR 0055
ENCODING 85
SWIDTH 555 0
DWIDTH 10 0
BBX 9 10 0 0
BITMAP
E380
E380
E380
E380
E380
E380
E380
E380
FF80
7F00
ENDCHAR
STARTCHAR 0056
ENCODING 86
SWIDTH 611 0
DWIDTH 11 0
BBX 10 10 0 0
BITMAP
E1C0
E1C0
E1C0
7B80
7B80
7F80
3F00
3F00
1E00
1E00
ENDCHAR
STARTCHAR 0057
ENCODING 87
SWIDTH 666 0
DWIDTH 12 0
BBX 11 10 0 0
BITMAP
E0E0
E0E0
E0E0
EEE0
EEE0
FFE0
FFE0
FFE0
79C0
3980
ENDCHAR
STARTCHAR 0058
ENCODING 88
SWIDTH 611 0
DWIDTH 11 0
BBX 10 10 0 0
BITMAP
E1C0
E1C0
7F80
3F00
1E00
3F00
3F00
7F80
E1C0
E1C0
ENDCHAR
STARTCHAR 0059
ENCODING 89
SWIDTH 611 0
DWIDTH 11 0
BBX 10 10 0 0
BITMAP
E1C0
E1C0
7F80
3F00
1E00
1E00
1E00
1E00
1E00
1E00
ENDCHAR
STARTCHAR 005A
ENCODING 90
SWIDTH 611 0
DWIDTH 11 0
BBX 10 10 0 0
BITMAP
FFC0
FFC0
E380
0F00
1E00
3E00
3C00
79C0
FFC0
FFC0
ENDCHAR
STARTCHAR 005B
ENCODING 91
SWIDTH 277 0
DWIDTH 5 0
BBX 4 15 1 -3
BITMAP
F0
F0
C0
C0
C0
C0
C0
C0
C0
C0
C0
C0
C0
F0
F0
ENDCHAR
STARTCHAR 005C
ENCODING 92
SWIDTH 388 0
DWIDTH 7 0
BBX 6 12 1 -1
BITMAP
C0
C0
F0
70
70
78
78
38
38
3C
1C
1C
ENDCHAR
STARTCHAR 005D
ENCODING 93
SWIDTH 277 0
DWIDTH 5 0
BBX 4 15 1 -3
BITMAP
F0
F0
70
70
70
70
70
70
70
70
70
70
70
F0
F0
ENDCHAR
STARTCHAR 005E
ENCODING 94
SWIDTH 555 0
DWIDTH 10 0
BBX 8 5 1 6
BITMAP
3C
7E
FF
F7
F7
ENDCHAR
STARTCHAR 005F
ENCODING 95
SWIDTH 666 0
DWIDTH 12 0
BBX 11 3 0 -5
BITMAP
FFE0
FFE0
FFE0
ENDCHAR
STARTCHAR 0060
ENCODING 96
SWIDTH 333 0
DWIDTH 6 0
BBX 5 3 1 9
BITMAP
F0
F8
78
ENDCHAR
STARTCHAR 0061
ENCODING 97
SWIDTH 555 0
DWIDTH 10 0
BBX 9 9 0 0
BITMAP
7F00
7F80
0380
FF80
FF80
FF80
E380
FF80
7F80
ENDCHAR
STARTCHAR 0062
ENCODING 98
SWIDTH 555 0
DWIDTH 10 0
BBX 9 12 0 0
BITMAP
E000
E000
E000
EF00
FF80
FF80
E380
E380
E380
E380
FF80
FF00
ENDCHAR
STARTCHAR 0063
ENCODING 99
SWIDTH 555 0
DWIDTH 10 0
BBX 9 9 0 0
BITMAP
7F80
FF80
E380
E380
E380
E000
E000
FF80
7F80
ENDCHAR
STARTCHAR 0064
ENCODING 100
SWIDTH 555 0
DWIDTH 10 0
BBX 9 11 0 0
BITMAP
0380
0380
7B80
FF80
EF80
E380
E380
E380
E380
FF80
7F80
ENDCHAR
STARTCHAR 0065
ENCODING 101
SWIDTH 555 0
DWIDTH 10 0
BBX 9 9 0 0
BITMAP
7F00
FF80
E380
FF80
FF80
FF80
E000
FF00
7F00
ENDCHAR
STARTCHAR 0066
ENCODING 102
SWIDTH 388 0
DWIDTH 7 0
BBX 7 12 0 0
BITMAP
3E
7E
78
FE
FE
78
78
78
78
78
78
78
ENDCHAR
STARTCHAR 0067
ENCODING 103
SWIDTH 611 0
DWIDTH 11 0
BBX 10 12 0 -3
BITMAP
7DC0
FFC0
EFC0
E380
E380
E380
E380
FF80
7F80
0380
7F80
7F00
ENDCHAR
STARTCHAR 0068
ENCODING 104
SWIDTH 555 0
DWIDTH 10 0
BBX 9 11 0 0
BITMAP
E000
E000
EF00
FF80
FB80
E380
E380
E380
E380
E380
E380
ENDCHAR
STARTCHAR 0069
ENCODING 105
SWIDTH 333 0
DWIDTH 6 0
BBX 6 14 0 0
BITMAP
78
78
78
78
00
F8
F8
78
78
78
78
78
7C
3C
ENDCHAR
STARTCHAR 006A
ENCODING 106
SWIDTH 500 0
DWIDTH 9 0
BBX 8 17 0 -3
BITMAP
0F
0F
0F
0F
00
7F
7F
0F
0F
0F
0F
0F
0F
0F
EF
FF
7E
ENDCHAR
STARTCHAR 006B
ENCODING 107
SWIDTH 555 0
DWIDTH 10 0
BBX 9 11 0 0
BITMAP
E000
E000
E000
E380
E380
EF00
FF00
FE00
FF00
E380
E380
ENDCHAR
STARTCHAR 006C
ENCODING 108
SWIDTH 333 0
DWIDTH 6 0
BBX 6 11 0 0
BITMAP
F8
F8
78
78
78
78
78
78
78
FC
FC
ENDCHAR
STARTCHAR 006D
ENCODING 109
SWIDTH 777 0
DWIDTH 14 0
BBX 14 9 0 0
BITMAP
FDF0
FFFC
7BBC
7BBC
7BBC
7BBC
7BBC
7BBC
7BBC
ENDCHAR
STARTCHAR 006E
ENCODING 110
SWIDTH 611 0
DWIDTH 11 0
BBX 10 9 0 0
BITMAP
EF80
FFC0
7DC0
79C0
79C0
79C0
79C0
79C0
79C0
ENDCHAR
STARTCHAR 006F
ENCODING 111
SWIDTH 555 0
DWIDTH 10 0
BBX 9 9 0 0
BITMAP
7F00
FF80
E380
E380
E380
E380
E380
FF80
7F00
ENDCHAR
STARTCHAR 0070
ENCODING 112
SWIDTH 555 0
DWIDTH 10 0
BBX 9 12 0 -3
BITMAP
EF00
FF80
FB80
E380
E380
E380
E380
FF80
FF00
E000
E000
E000
ENDCHAR
STARTCHAR 0071
ENCODING 113
SWIDTH 555 0
DWIDTH 10 0
BBX 9 12 0 -3
BITMAP
7F00
FF80
E380
E380
E380
E380
FF80
FF80
7B80
0380
0380
0380
ENDCHAR
STARTCHAR 0072
ENCODING 114
SWIDTH 555 0
DWIDTH 10 0
BBX 9 9 0 0
BITMAP
EF00
FF80
FB80
E380
E380
E000
E000
E000
E000
ENDCHAR
STARTCHAR 0073
ENCODING 115
SWIDTH 555 0
DWIDTH 10 0
BBX 9 9 0 0
BITMAP
7F80
FF80
E380
7C00
7F00
3F00
0F80
FF80
FF00
ENDCHAR
STARTCHAR 0074
ENCODING 116
SWIDTH 388 0
DWIDTH 7 0
BBX 7 11 0 0
BITMAP
38
78
FE
FE
78
78
78
78
78
7E
3E
ENDCHAR
STARTCHAR 0075
ENCODING 117
SWIDTH 555 0
DWIDTH 10 0
BBX 9 9 0 0
BITMAP
E380
E380
E380
E380
E380
E380
EF80
FF80
7D80
ENDCHAR
STARTCHAR 0076
ENCODING 118
SWIDTH 611 0
DWIDTH 11 0
BBX 10 9 0 0
BITMAP
E1C0
E1C0
E1C0
FBC0
FBC0
7B80
7B80
3F00
1E00
ENDCHAR
STARTCHAR 0077
ENCODING 119
SWIDTH 722 0
DWIDTH 13 0
BBX 12 9 0 0
BITMAP
E070
E070
EF70
EF70
EF70
EF70
FFF0
7DE0
38C0
ENDCHAR
STARTCHAR 0078
ENCODING 120
SWIDTH 500 0
DWIDTH 9 0
BBX 8 9 0 0
BITMAP
EF
EF
7E
3C
3C
3C
7E
EF
EF
ENDCHAR
STARTCHAR 0079
ENCODING 121
SWIDTH 555 0
DWIDTH 10 0
BBX 9 12 0 -3
BITMAP
E380
E380
E380
E380
E380
E380
E380
FF80
7F80
0380
7F80
7F00
ENDCHAR
STARTCHAR 007A
ENCODING 122
SWIDTH 555 0
DWIDTH 10 0
BBX 9 9 0 0
BITMAP
FF80
FF80
EF00
1E00
3E00
3C00
7B80
FF80
FF80
ENDCHAR
STARTCHAR 007B
ENCODING 123
SWIDTH 333 0
DWIDTH 6 0
BBX 5 15 1 -3
BITMAP
38
78
70
70
70
70
C0
C0
C0
70
70
70
70
78
38
ENDCHAR
STARTCHAR 007C
ENCODING 124
SWIDTH 222 0
DWIDTH 4 0
BBX 2 15 1 -3
BITMAP
C0
C0
C0
C0
C0
C0
C0
C0
C0
C0
C0
C0
C0
C0
C0
ENDCHAR
STARTCHAR 007D
ENCODING 125
SWIDTH 333 0
DWIDTH 6 0
BBX 5 15 1 -3
BITMAP
C0
F0
70
70
70
70
38
38
38
70
70
70
70
F0
C0
ENDCHAR
STARTCHAR 007E
ENCODING 126
SWIDTH 500 0
DWIDTH 9 0
BBX 7 5 1 3
BITMAP
76
FE
FE
FE
DC
ENDCHAR
ENDFONT
